<svg width="20" height="20" viewBox="0 0 20 20" fill="none" xmlns="http://www.w3.org/2000/svg">
<path d="M15.6991 17.2466L13.1491 14.7016L11.5466 16.3049C11.4899 16.361 11.413 16.3891 11.3158 16.3891C11.2185 16.3891 11.1416 16.3608 11.0849 16.3041C10.8294 16.0485 10.7016 15.733 10.7016 15.3574C10.7016 14.9813 10.8294 14.6655 11.0849 14.4099L14.4933 11.0016C14.7488 10.746 15.0646 10.6183 15.4408 10.6183C15.8169 10.6183 16.1327 10.746 16.3883 11.0016C16.4444 11.0583 16.4724 11.1352 16.4724 11.2324C16.4724 11.3297 16.4444 11.4066 16.3883 11.4633L14.7849 13.0658L17.3299 15.6158C17.4649 15.7502 17.5324 15.9072 17.5324 16.0866C17.5324 16.266 17.4649 16.423 17.3299 16.5574L16.6408 17.2466C16.5063 17.381 16.3494 17.4483 16.1699 17.4483C15.9905 17.4483 15.8335 17.381 15.6991 17.2466ZM17.2983 4.7666L8.29826 13.7833L8.91493 14.3949C9.17048 14.6505 9.29826 14.9663 9.29826 15.3424C9.29826 15.7185 9.17048 16.0341 8.91493 16.2891C8.85826 16.3458 8.78132 16.3741 8.68409 16.3741C8.58687 16.3741 8.50993 16.3458 8.45326 16.2891L6.85076 14.6866L4.30076 17.2316C4.16632 17.366 4.00937 17.4333 3.82993 17.4333C3.65048 17.4333 3.49354 17.366 3.3591 17.2316L2.66993 16.5424C2.53548 16.408 2.46826 16.251 2.46826 16.0716C2.46826 15.8922 2.53548 15.7349 2.66993 15.5999L5.21493 13.0499L3.61243 11.4483C3.55576 11.3916 3.52743 11.3147 3.52743 11.2174C3.52743 11.1202 3.55576 11.0433 3.61243 10.9866C3.86798 10.731 4.18354 10.6033 4.5591 10.6033C4.93521 10.6033 5.25104 10.731 5.50659 10.9866L6.13493 11.6199L14.9533 2.81494C15.0744 2.69438 15.2194 2.59772 15.3883 2.52494C15.5571 2.45216 15.7316 2.41577 15.9116 2.41577H16.8266C17.0199 2.41577 17.1805 2.47966 17.3083 2.60744C17.436 2.73522 17.4999 2.89577 17.4999 3.0891V4.2891C17.4999 4.3791 17.4844 4.46272 17.4533 4.53994C17.4222 4.61716 17.3705 4.69216 17.2983 4.76494M5.90826 7.98827L2.88326 4.96327C2.76215 4.84216 2.66798 4.69716 2.60076 4.52827C2.53354 4.35938 2.49993 4.18494 2.49993 4.00494V3.08994C2.49993 2.89605 2.56382 2.73549 2.6916 2.60827C2.81937 2.48105 2.97993 2.41716 3.17326 2.4166H4.08826C4.26771 2.4166 4.44215 2.45272 4.61159 2.52494C4.78104 2.59772 4.92604 2.69466 5.0466 2.81577L8.05576 5.84077C8.18021 5.96522 8.24243 6.11244 8.24243 6.28244C8.24243 6.45244 8.18021 6.59966 8.05576 6.7241L6.82493 7.98827C6.70104 8.11272 6.54826 8.17494 6.3666 8.17494C6.18493 8.17494 6.03271 8.11299 5.90993 7.9891" fill="#319AE0"/>
</svg>
