<svg width="20" height="20" viewBox="0 0 20 20" fill="none" xmlns="http://www.w3.org/2000/svg">
<path d="M3.13333 3.08341L1.78333 4.06675L3.69166 6.66675C4.19779 6.40059 4.73532 6.19901 5.29166 6.06675M9.16666 7.50008V9.16675H15V9.40841L10.8333 10.5917V12.9167C10.8333 13.6584 10.6134 14.3835 10.2013 15.0001C9.78928 15.6168 9.20361 16.0975 8.51839 16.3813C7.83317 16.6651 7.07917 16.7394 6.35174 16.5947C5.62431 16.45 4.95612 16.0928 4.43168 15.5684C3.90723 15.044 3.55008 14.3758 3.40538 13.6483C3.26069 12.9209 3.33495 12.1669 3.61878 11.4817C3.90261 10.7965 4.38325 10.2108 4.99994 9.79874C5.61662 9.38668 6.34165 9.16675 7.08333 9.16675H7.49999V7.50008H7.08333C6.01201 7.50008 4.96475 7.81776 4.07399 8.41295C3.18322 9.00815 2.48895 9.85411 2.07898 10.8439C1.669 11.8336 1.56174 12.9228 1.77074 13.9735C1.97974 15.0242 2.49563 15.9894 3.25316 16.7469C4.0107 17.5044 4.97586 18.0203 6.02659 18.2293C7.07732 18.4383 8.16643 18.3311 9.15619 17.9211C10.146 17.5111 10.9919 16.8169 11.5871 15.9261C12.1823 15.0353 12.5 13.9881 12.5 12.9167V11.5917L18.3333 10.0001V7.50008M13.5333 3.08341L11.5417 5.83341H13.6L14.8833 4.06675M7.49999 1.66675V5.83341H9.16666V1.66675H7.49999Z" fill="#FFB900"/>
</svg>
