<svg width="24" height="24" viewBox="0 0 24 24" fill="none" xmlns="http://www.w3.org/2000/svg">
<path d="M12 16.6007H12.0091M12 9.70927V13.155M10.3632 4.21565L2.25662 17.7493C2.0896 18.0387 2.00125 18.3669 2.00037 18.7011C1.99949 19.0353 2.08611 19.3639 2.25161 19.6543C2.41712 19.9447 2.65574 20.1866 2.94375 20.3562C3.23177 20.5257 3.55915 20.6169 3.89334 20.6207H20.1066C20.4409 20.6172 20.7685 20.5263 21.0567 20.3568C21.3449 20.1873 21.5837 19.9453 21.7493 19.6549C21.9148 19.3644 22.0014 19.0356 22.0004 18.7013C21.9993 18.3669 21.9107 18.0387 21.7433 17.7493L13.6378 4.21565C13.4673 3.93417 13.2271 3.70141 12.9404 3.53987C12.6537 3.37833 12.3302 3.29346 12.0011 3.29346C11.672 3.29346 11.3485 3.37833 11.0618 3.53987C10.7751 3.70141 10.5349 3.93417 10.3644 4.21565" stroke="#FFB900" stroke-width="1.72286" stroke-miterlimit="10" stroke-linecap="round" stroke-linejoin="round"/>
</svg>
