<svg width="20" height="20" viewBox="0 0 20 20" fill="none" xmlns="http://www.w3.org/2000/svg">
<path d="M16.6667 10.8333C16.6667 15 13.75 17.0833 10.2833 18.2916C10.1018 18.3532 9.90462 18.3502 9.72501 18.2833C6.25001 17.0833 3.33334 15 3.33334 10.8333V4.99997C3.33334 4.77895 3.42114 4.56699 3.57742 4.41071C3.7337 4.25443 3.94566 4.16663 4.16668 4.16663C5.83334 4.16663 7.91668 3.16663 9.36668 1.89997C9.54322 1.74913 9.7678 1.66626 10 1.66626C10.2322 1.66626 10.4568 1.74913 10.6333 1.89997C12.0917 3.17497 14.1667 4.16663 15.8333 4.16663C16.0544 4.16663 16.2663 4.25443 16.4226 4.41071C16.5789 4.56699 16.6667 4.77895 16.6667 4.99997V10.8333Z" stroke="#319AE0" stroke-width="1.66667" stroke-linecap="round" stroke-linejoin="round"/>
</svg>
