<svg width="14" height="14" viewBox="0 0 14 14" fill="none" xmlns="http://www.w3.org/2000/svg">
<path d="M2.19332 2.15841L1.24832 2.84675L2.58416 4.66675C2.93845 4.48044 3.31472 4.33933 3.70416 4.24675M6.41666 5.25008V6.41675H10.5V6.58591L7.58332 7.41425V9.04175C7.58332 9.56092 7.42937 10.0684 7.14093 10.5001C6.85249 10.9318 6.44252 11.2683 5.96287 11.4669C5.48321 11.6656 4.95541 11.7176 4.44621 11.6163C3.93701 11.515 3.46928 11.265 3.10217 10.8979C2.73506 10.5308 2.48505 10.0631 2.38376 9.55386C2.28248 9.04466 2.33446 8.51686 2.53314 8.0372C2.73182 7.55755 3.06827 7.14758 3.49995 6.85914C3.93163 6.5707 4.43915 6.41675 4.95832 6.41675H5.24999V5.25008H4.95832C4.2084 5.25008 3.47532 5.47246 2.85179 5.88909C2.22825 6.30573 1.74226 6.8979 1.45528 7.59074C1.1683 8.28358 1.09321 9.04595 1.23951 9.78147C1.38582 10.517 1.74694 11.1926 2.27721 11.7229C2.80749 12.2531 3.4831 12.6143 4.21861 12.7606C4.95412 12.9069 5.7165 12.8318 6.40933 12.5448C7.10217 12.2578 7.69435 11.7718 8.11098 11.1483C8.52761 10.5247 8.74999 9.79167 8.74999 9.04175V8.11425L12.8333 7.00008V5.25008M9.47332 2.15841L8.07916 4.08341H9.51999L10.4183 2.84675M5.24999 1.16675V4.08341H6.41666V1.16675H5.24999Z" fill="#62748E"/>
</svg>
