<svg width="20" height="20" viewBox="0 0 20 20" fill="none" xmlns="http://www.w3.org/2000/svg">
<path d="M9.99999 18.3334C9.30555 18.3334 8.71527 18.0904 8.22916 17.6042C7.74305 17.1181 7.49999 16.5279 7.49999 15.8334C7.49999 15.764 7.5036 15.6876 7.51082 15.6042C7.51804 15.5209 7.52832 15.4445 7.54166 15.3751L5.81249 14.3959C5.59027 14.5904 5.34027 14.7398 5.06249 14.8442C4.78471 14.9487 4.4861 15.0006 4.16666 15.0001C3.47221 15.0001 2.88193 14.757 2.39582 14.2709C1.90971 13.7848 1.66666 13.1945 1.66666 12.5001C1.66666 11.8056 1.90971 11.2154 2.39582 10.7292C2.88193 10.2431 3.47221 10.0001 4.16666 10.0001C4.49999 10.0001 4.81249 10.0626 5.10416 10.1876C5.39582 10.3126 5.65971 10.4862 5.89582 10.7084L8.37499 9.45842C8.33332 9.13897 8.35055 8.82647 8.42666 8.52092C8.50277 8.21536 8.63832 7.93064 8.83332 7.66675L8.12499 6.58341C8.02777 6.61119 7.92693 6.63203 7.82249 6.64591C7.71805 6.6598 7.61055 6.66675 7.49999 6.66675C6.80555 6.66675 6.21527 6.42369 5.72916 5.93758C5.24305 5.45147 4.99999 4.86119 4.99999 4.16675C4.99999 3.4723 5.24305 2.88203 5.72916 2.39591C6.21527 1.9098 6.80555 1.66675 7.49999 1.66675C8.19443 1.66675 8.78471 1.9098 9.27082 2.39591C9.75693 2.88203 9.99999 3.4723 9.99999 4.16675C9.99999 4.44453 9.95499 4.71203 9.86499 4.96925C9.77499 5.22647 9.65332 5.45897 9.49999 5.66675L10.2292 6.75008C10.3403 6.7223 10.4444 6.70147 10.5417 6.68758C10.6389 6.67369 10.743 6.66675 10.8542 6.66675C11.0903 6.66675 11.3125 6.69453 11.5208 6.75008C11.7292 6.80564 11.9305 6.88897 12.125 7.00008L13.5 5.87508C13.4444 5.73619 13.4028 5.59397 13.375 5.44841C13.3472 5.30286 13.3333 5.15341 13.3333 5.00008C13.3333 4.30564 13.5764 3.71536 14.0625 3.22925C14.5486 2.74314 15.1389 2.50008 15.8333 2.50008C16.5278 2.50008 17.118 2.74314 17.6042 3.22925C18.0903 3.71536 18.3333 4.30564 18.3333 5.00008C18.3333 5.69453 18.0903 6.2848 17.6042 6.77091C17.118 7.25703 16.5278 7.50008 15.8333 7.50008C15.5972 7.50008 15.375 7.46897 15.1667 7.40675C14.9583 7.34453 14.7569 7.25758 14.5625 7.14591L13.1875 8.29175C13.243 8.43064 13.2847 8.57314 13.3125 8.71925C13.3403 8.86536 13.3542 9.01453 13.3542 9.16675C13.3542 9.86119 13.1111 10.4515 12.625 10.9376C12.1389 11.4237 11.5486 11.6667 10.8542 11.6667C10.5208 11.6667 10.205 11.6042 9.90666 11.4792C9.60832 11.3542 9.34082 11.1806 9.10416 10.9584L6.64582 12.1876C6.6736 12.3126 6.68416 12.4376 6.67749 12.5626C6.67082 12.6876 6.65332 12.8126 6.62499 12.9376L8.37499 13.9376C8.59721 13.7431 8.84388 13.5937 9.11499 13.4892C9.3861 13.3848 9.6811 13.3329 9.99999 13.3334C10.6944 13.3334 11.2847 13.5765 11.7708 14.0626C12.2569 14.5487 12.5 15.139 12.5 15.8334C12.5 16.5279 12.2569 17.1181 11.7708 17.6042C11.2847 18.0904 10.6944 18.3334 9.99999 18.3334ZM4.16666 13.3334C4.40277 13.3334 4.60082 13.2534 4.76082 13.0934C4.92082 12.9334 5.00055 12.7356 4.99999 12.5001C4.99943 12.2645 4.91943 12.0667 4.75999 11.9067C4.60055 11.7467 4.40277 11.6667 4.16666 11.6667C3.93055 11.6667 3.73277 11.7467 3.57332 11.9067C3.41388 12.0667 3.33388 12.2645 3.33332 12.5001C3.33277 12.7356 3.41277 12.9337 3.57332 13.0942C3.73388 13.2548 3.93166 13.3345 4.16666 13.3334ZM7.49999 5.00008C7.7361 5.00008 7.93416 4.92008 8.09416 4.76008C8.25416 4.60008 8.33388 4.4023 8.33332 4.16675C8.33277 3.93119 8.25277 3.73341 8.09332 3.57341C7.93388 3.41341 7.7361 3.33341 7.49999 3.33341C7.26388 3.33341 7.0661 3.41341 6.90666 3.57341C6.74721 3.73341 6.66721 3.93119 6.66666 4.16675C6.6661 4.4023 6.7461 4.60036 6.90666 4.76091C7.06721 4.92147 7.26499 5.00119 7.49999 5.00008ZM9.99999 16.6667C10.2361 16.6667 10.4342 16.5867 10.5942 16.4267C10.7542 16.2667 10.8339 16.069 10.8333 15.8334C10.8328 15.5979 10.7528 15.4001 10.5933 15.2401C10.4339 15.0801 10.2361 15.0001 9.99999 15.0001C9.76388 15.0001 9.5661 15.0801 9.40666 15.2401C9.24721 15.4001 9.16721 15.5979 9.16666 15.8334C9.1661 16.069 9.2461 16.267 9.40666 16.4276C9.56721 16.5881 9.76499 16.6679 9.99999 16.6667ZM10.8333 10.0001C11.0694 10.0001 11.2675 9.92008 11.4275 9.76008C11.5875 9.60008 11.6672 9.4023 11.6667 9.16675C11.6661 8.93119 11.5861 8.73341 11.4267 8.57341C11.2672 8.41341 11.0694 8.33341 10.8333 8.33341C10.5972 8.33341 10.3994 8.41341 10.24 8.57341C10.0805 8.73341 10.0005 8.93119 9.99999 9.16675C9.99943 9.4023 10.0794 9.60036 10.24 9.76091C10.4005 9.92147 10.5983 10.0012 10.8333 10.0001ZM15.8333 5.83341C16.0694 5.83341 16.2675 5.75341 16.4275 5.59341C16.5875 5.43341 16.6672 5.23564 16.6667 5.00008C16.6661 4.76453 16.5861 4.56675 16.4267 4.40675C16.2672 4.24675 16.0694 4.16675 15.8333 4.16675C15.5972 4.16675 15.3994 4.24675 15.24 4.40675C15.0805 4.56675 15.0005 4.76453 15 5.00008C14.9994 5.23564 15.0794 5.43369 15.24 5.59425C15.4005 5.7548 15.5983 5.83453 15.8333 5.83341Z" fill="#319AE0"/>
</svg>
