<svg width="20" height="20" viewBox="0 0 20 20" fill="none" xmlns="http://www.w3.org/2000/svg">
<g clip-path="url(#clip0_77_7313)">
<path d="M10 4.16667C10.001 3.83336 9.93532 3.50322 9.80685 3.19567C9.67837 2.88811 9.4897 2.60936 9.25191 2.37579C9.01413 2.14222 8.73204 1.95856 8.42224 1.83561C8.11243 1.71266 7.78117 1.6529 7.44793 1.65984C7.1147 1.66679 6.78621 1.7403 6.4818 1.87606C6.17739 2.01181 5.9032 2.20707 5.67536 2.45034C5.44751 2.69361 5.27061 2.97999 5.15506 3.29263C5.03952 3.60527 4.98765 3.93786 5.00252 4.27083C4.51269 4.39678 4.05794 4.63254 3.67271 4.96026C3.28749 5.28798 2.98189 5.69906 2.77906 6.16237C2.57623 6.62569 2.48149 7.12908 2.50201 7.63443C2.52254 8.13978 2.65779 8.63383 2.89752 9.07917C2.476 9.42161 2.14454 9.86186 1.93197 10.3616C1.7194 10.8614 1.63215 11.4055 1.67782 11.9467C1.7235 12.4878 1.9007 13.0096 2.19403 13.4667C2.48735 13.9237 2.88791 14.3022 3.36085 14.5692C3.30245 15.021 3.3373 15.4801 3.46326 15.9179C3.58922 16.3558 3.8036 16.7632 4.09318 17.115C4.38275 17.4667 4.74136 17.7554 5.14687 17.9631C5.55238 18.1709 5.99617 18.2933 6.45083 18.3228C6.9055 18.3523 7.36139 18.2883 7.79034 18.1347C8.2193 17.9811 8.61221 17.7412 8.94482 17.4298C9.27743 17.1184 9.54267 16.7421 9.72416 16.3242C9.90565 15.9063 9.99953 15.4556 10 15V4.16667Z" stroke="#319AE0" stroke-width="1.66667" stroke-linecap="round" stroke-linejoin="round"/>
<path d="M10 4.16667C9.99903 3.83336 10.0647 3.50322 10.1932 3.19567C10.3217 2.88811 10.5103 2.60936 10.7481 2.37579C10.9859 2.14222 11.268 1.95856 11.5778 1.83561C11.8876 1.71266 12.2189 1.6529 12.5521 1.65984C12.8853 1.66679 13.2138 1.7403 13.5182 1.87606C13.8226 2.01181 14.0968 2.20707 14.3247 2.45034C14.5525 2.69361 14.7294 2.97999 14.845 3.29263C14.9605 3.60527 15.0124 3.93786 14.9975 4.27083C15.4873 4.39678 15.9421 4.63254 16.3273 4.96026C16.7125 5.28798 17.0181 5.69906 17.221 6.16237C17.4238 6.62569 17.5185 7.12908 17.498 7.63443C17.4775 8.13978 17.3422 8.63383 17.1025 9.07917C17.524 9.42161 17.8555 9.86186 18.0681 10.3616C18.2806 10.8614 18.3679 11.4055 18.3222 11.9467C18.2765 12.4878 18.0993 13.0096 17.806 13.4667C17.5127 13.9237 17.1121 14.3022 16.6392 14.5692C16.6976 15.021 16.6627 15.4801 16.5368 15.9179C16.4108 16.3558 16.1964 16.7632 15.9069 17.115C15.6173 17.4667 15.2587 17.7554 14.8532 17.9631C14.4477 18.1709 14.0039 18.2933 13.5492 18.3228C13.0945 18.3523 12.6386 18.2883 12.2097 18.1347C11.7807 17.9811 11.3878 17.7412 11.0552 17.4298C10.7226 17.1184 10.4574 16.7421 10.2759 16.3242C10.0944 15.9063 10.0005 15.4556 10 15V4.16667Z" stroke="#319AE0" stroke-width="1.66667" stroke-linecap="round" stroke-linejoin="round"/>
<path d="M12.5 10.8333C11.8004 10.5872 11.1894 10.1392 10.7444 9.54584C10.2994 8.95251 10.0404 8.24056 10 7.5C9.95962 8.24056 9.70056 8.95251 9.25556 9.54584C8.81057 10.1392 8.19963 10.5872 7.5 10.8333" stroke="#319AE0" stroke-width="1.66667" stroke-linecap="round" stroke-linejoin="round"/>
<path d="M14.6658 5.41665C14.8675 5.06713 14.9816 4.67399 14.9983 4.27081" stroke="#319AE0" stroke-width="1.66667" stroke-linecap="round" stroke-linejoin="round"/>
<path d="M5.0025 4.27081C5.01898 4.67392 5.13278 5.06706 5.33417 5.41665" stroke="#319AE0" stroke-width="1.66667" stroke-linecap="round" stroke-linejoin="round"/>
<path d="M2.89749 9.08C3.04994 8.95584 3.21308 8.84541 3.38499 8.75" stroke="#319AE0" stroke-width="1.66667" stroke-linecap="round" stroke-linejoin="round"/>
<path d="M16.615 8.75C16.7869 8.84541 16.95 8.95584 17.1025 9.08" stroke="#319AE0" stroke-width="1.66667" stroke-linecap="round" stroke-linejoin="round"/>
<path d="M5.00001 15C4.4257 15.0003 3.86106 14.8522 3.36084 14.57" stroke="#319AE0" stroke-width="1.66667" stroke-linecap="round" stroke-linejoin="round"/>
<path d="M16.6392 14.57C16.1389 14.8522 15.5743 15.0003 15 15" stroke="#319AE0" stroke-width="1.66667" stroke-linecap="round" stroke-linejoin="round"/>
</g>
<defs>
<clipPath id="clip0_77_7313">
<rect width="20" height="20" fill="white"/>
</clipPath>
</defs>
</svg>
